<svg xmlns="http://www.w3.org/2000/svg" viewBox="0 0 38 38"><defs><style>.cls-1,.cls-2{fill:none;}.cls-1{stroke:#72695e;stroke-miterlimit:10;opacity:0.8;}</style></defs><title>asana_warrior</title><g id="Слой_2" data-name="Слой 2"><g id="Layer_1" data-name="Layer 1"><path class="cls-1" d="M0,15H13c3,0,2,3.25,2,9A124.16,124.16,0,0,0,2,37H4.06s12.25-7.62,15.29-8A47.41,47.41,0,0,1,27,29v8h5m6-24H23V7a3,3,0,0,0-6,0v3c0,2.84,1,3.9,4,5.31,1.47.7,2.25,1.52,2.25,2.69S23,20.52,23,23.88a60.62,60.62,0,0,1,6.31,1,2,2,0,0,1,1.75,2.05c0,1.56-1,10.06-1,10.06"/><rect class="cls-2" width="38" height="38"/></g></g></svg>