<svg xmlns="http://www.w3.org/2000/svg" viewBox="0 0 38 38"><defs><style>.cls-1,.cls-2{fill:none;}.cls-1{stroke:#72695e;stroke-miterlimit:10;opacity:0.8;}</style></defs><title>asana_tree</title><g id="Слой_2" data-name="Слой 2"><g id="Layer_1" data-name="Layer 1"><path class="cls-1" d="M17,24c0,4.06,2,13,2,13H14M17,2s-6,3.34-6,8a7.27,7.27,0,0,0,2,5v8c0,4.41,1.23,7.5,3.5,14m1.19-7.91c4.88,0,7.31-1,7.31-2.53,0-3-4-4.81-4-4.81V15a7.65,7.65,0,0,0,2-5c0-4.64-6-8-6-8V0m0,7c-1.1,0-2,1.34-2,3s.9,3,2,3,2-1.34,2-3S18.1,7,17,7Z"/><rect class="cls-2" width="38" height="38"/></g></g></svg>