<svg xmlns="http://www.w3.org/2000/svg" viewBox="0 0 38 38"><defs><style>.cls-1,.cls-2{fill:none;}.cls-1{stroke:#72695e;stroke-miterlimit:10;opacity:0.8;}</style></defs><title>asana_triangle</title><g id="Слой_2" data-name="Слой 2"><g id="Layer_1" data-name="Layer 1"><path class="cls-1" d="M27,36,18.5,23c5.75,0,6.51-.37,6.94,2.63C25.64,27.06,27.25,37,27.25,37M23.6,12.18A2.64,2.64,0,0,1,20.69,15c-9.36,0-11.52,1.06-13.26,4.44C5.34,23.54,2,37,2,37H4.06s7-12,7.74-12S24,37,24,37h6M21.87.08,24,15c.57,4,1.15,6,4,6h3a3,3,0,0,0,0-6c-2.56,0-7,0-7,0"/><rect class="cls-2" width="38" height="38"/></g></g></svg>