<svg xmlns="http://www.w3.org/2000/svg" viewBox="0 0 38 38"><defs><style>.cls-1,.cls-2{fill:none;}.cls-1{stroke:#72695e;stroke-miterlimit:10;opacity:0.8;}</style></defs><title>asana_dog</title><g id="Слой_2" data-name="Слой 2"><g id="Layer_1" data-name="Layer 1"><path class="cls-1" d="M8,31H1A125.54,125.54,0,0,1,6.57,12.56C8.45,7.57,10.63,7,13.25,7c3,0,4.56,2.31,7.75,7,2.52,3.7,11,17,14,17h3m-8.35-4.73S29.38,29,25.75,29C22.44,29,21,25.23,21,24a6.72,6.72,0,0,1,.63-3,7.28,7.28,0,0,1-4.94-1.49c-1.69-1.49-2.9-4.29-4.31-5.7A62.2,62.2,0,0,0,4.38,31"/><rect class="cls-2" width="38" height="38"/></g></g></svg>