<?xml version="1.0" encoding="utf-8"?>
<!-- Generator: Adobe Illustrator 21.0.2, SVG Export Plug-In . SVG Version: 6.00 Build 0)  -->
<svg version="1.1" id="Слой_1" xmlns="http://www.w3.org/2000/svg" xmlns:xlink="http://www.w3.org/1999/xlink" x="0px" y="0px"
	 viewBox="0 0 56 101" style="enable-background:new 0 0 56 101;" xml:space="preserve">
<style type="text/css">
	.st0{fill-rule:evenodd;clip-rule:evenodd;}
</style>
<g>
	<g>
		<path class="st0" d="M47.5,0.5h-39c-4.4,0-8,3.6-8,8v84c0,4.4,3.6,8,8,8h39c4.4,0,8-3.6,8-8v-84C55.5,4.1,51.9,0.5,47.5,0.5z
			 M53.5,92.5c0,2.9-3.1,6-6,6h-39c-2.9,0-6-3.2-6-6v-84c0-2.9,3.2-6,6-6h39c2.9,0,6,3.1,6,6V92.5z M12,10.5c-0.8,0-1.5,0.7-1.5,1.5
			c0,0.8,0.7,1.5,1.5,1.5c0.8,0,1.5-0.7,1.5-1.5C13.5,11.2,12.8,10.5,12,10.5z M28,75.5c-4.1,0-7.5,3.4-7.5,7.5
			c0,4.1,3.4,7.5,7.5,7.5c4.1,0,7.5-3.4,7.5-7.5C35.5,78.9,32.1,75.5,28,75.5z M28,88.5c-3,0-5.5-2.5-5.5-5.5c0-3,2.5-5.5,5.5-5.5
			c3,0,5.5,2.5,5.5,5.5C33.5,86,31,88.5,28,88.5z M30.5,12.5v-1c0-0.6-0.4-1-1-1h-10c-0.6,0-1,0.4-1,1v1c0,0.6,0.4,1,1,1h10
			C30.1,13.5,30.5,13.1,30.5,12.5z"/>
	</g>
</g>
</svg>
