<svg xmlns="http://www.w3.org/2000/svg" viewBox="0 0 38 38"><defs><style>.cls-1,.cls-2{fill:none;}.cls-1{stroke:#72695e;stroke-miterlimit:10;opacity:0.8;}</style></defs><title>mudra_abhaya</title><g id="Слой_2" data-name="Слой 2"><g id="Layer_1" data-name="Layer 1"><path class="cls-1" d="M21,16V5a2,2,0,0,1,4,0V21.69c0,1.63,1.42,1.53,1.78.6l2.36-6a2,2,0,1,1,3.72,1.46L29.4,26.58C27.52,31.39,26.29,35,21.88,35H18M13,18V7A2,2,0,0,0,9,7V28c0,4.92,2.63,7,6,7h1m5-19V3a2,2,0,0,0-4,0V16m0,0V5a2,2,0,0,0-4,0V16"/><rect class="cls-2" width="38" height="38"/></g></g></svg>