<svg xmlns="http://www.w3.org/2000/svg" viewBox="0 0 38 38"><defs><style>.cls-1,.cls-2{fill:none;}.cls-1{stroke:#72695e;stroke-miterlimit:10;opacity:0.8;}</style></defs><title>svastika</title><g id="Слой_2" data-name="Слой 2"><g id="Layer_1" data-name="Layer 1"><path class="cls-1" d="M13.32,13a.31.31,0,1,0-.31.31A.31.31,0,0,0,13.32,13ZM24.69,25a.31.31,0,1,0,.31-.31A.31.31,0,0,0,24.69,25ZM25,13.32a.31.31,0,1,0-.31-.31A.31.31,0,0,0,25,13.32ZM13,24.69a.31.31,0,1,0,.31.31A.31.31,0,0,0,13,24.69ZM5,5a5.88,5.88,0,0,1,2,5v9H31v9a5.88,5.88,0,0,0,2,5M33,5a5.88,5.88,0,0,1-5,2H19V31H10a5.88,5.88,0,0,0-5,2"/><rect class="cls-2" width="38" height="38"/></g></g></svg>