<svg xmlns="http://www.w3.org/2000/svg" viewBox="0 0 38 38"><defs><style>.cls-1,.cls-2{fill:none;}.cls-1{stroke:#72695e;stroke-miterlimit:10;opacity:0.8;}</style></defs><title>ajna</title><g id="Слой_2" data-name="Слой 2"><g id="Layer_1" data-name="Layer 1"><path class="cls-1" d="M29,19A10,10,0,1,1,19,9,10,10,0,0,1,29,19ZM13.49,10.65A6.83,6.83,0,0,0,10.64,10c-6.08,0-6.2,6-9.2,9,3,3,3.12,9,9.2,9a6.82,6.82,0,0,0,2.85-.65m11,0a6.82,6.82,0,0,0,2.85.65c6.08,0,6.2-6,9.2-9-3-3-3.12-9-9.2-9a6.84,6.84,0,0,0-2.85.65M10.34,14l8.91,15m8.41-15H10.34m8.91,15,8.41-15"/><rect class="cls-2" width="38" height="38"/></g></g></svg>