<svg xmlns="http://www.w3.org/2000/svg" viewBox="0 0 38 38"><defs><style>.cls-1,.cls-2{fill:none;}.cls-1{stroke:#72695e;stroke-miterlimit:10;opacity:0.8;}</style></defs><title>anahara</title><g id="Слой_2" data-name="Слой 2"><g id="Layer_1" data-name="Layer 1"><path class="cls-1" d="M31,19A12,12,0,1,0,19,31,12,12,0,0,0,31,19Zm-1.61-6c2.77-1.6.92-3.83.92-5.31-1.48,0-3.71-1.85-5.31.92M8.61,25c-2.77,1.6-.92,3.83-.92,5.31,1.48,0,3.71,1.85,5.31-.92M13,8.61c-1.6-2.77-3.83-.92-5.31-.92,0,1.48-1.85,3.71.92,5.31M25,29.39c1.6,2.77,3.83.92,5.31.92,0-1.48,1.85-3.71-.92-5.31M31,19c3.2,0,2.71-2.86,3.46-4.14-1.28-.74-2.29-3.46-5.06-1.86M7,19c-3.2,0-2.71,2.86-3.45,4.14,1.28.74,2.29,3.46,5.06,1.86M19,7c0-3.2-2.86-2.71-4.14-3.46C14.12,4.83,11.4,5.84,13,8.61M19,31c0,3.2,2.86,2.72,4.14,3.46.74-1.28,3.46-2.29,1.86-5.06M29.39,25c2.77,1.6,3.78-1.12,5.06-1.86C33.71,21.86,34.2,19,31,19M8.61,13c-2.77-1.6-3.78,1.12-5.06,1.86C4.29,16.14,3.8,19,7,19M25,8.61c1.6-2.77-1.12-3.78-1.86-5.06C21.86,4.29,19,3.8,19,7M13,29.39c-1.6,2.77,1.12,3.78,1.86,5.06C16.14,33.71,19,34.2,19,31M19,7,8.61,25m20.78,0H8.61m20.78,0L19,7m6.93,12,3.47-6M19,31l3.46-6m0-12h6.93M8.61,13h6.92m0,12L19,31M8.61,13l3.46,6"/><rect class="cls-2" width="38" height="38"/></g></g></svg>