<svg xmlns="http://www.w3.org/2000/svg" viewBox="0 0 38 38"><defs><style>.cls-1,.cls-2{fill:none;}.cls-1{stroke:#72695e;stroke-miterlimit:10;opacity:0.8;}</style></defs><title>asana_cat</title><g id="Слой_2" data-name="Слой 2"><g id="Layer_1" data-name="Layer 1"><path class="cls-1" d="M34,31H31V11.54m0,15.34A9,9,0,0,0,32,27a5,5,0,0,0,5-5,6,6,0,0,0-1-3C32,12,28.42,7,22,7,16.61,7,9,11,9,16c0,2.13.37,4.31,1.32,10.56L3,27,1.47,31H12.19A2.67,2.67,0,0,0,15,28V19s2.5-4,7-4c2.08,0,5,3,5,3l-2.66,2.79L27,24.19"/><rect class="cls-2" width="38" height="38"/></g></g></svg>