<svg xmlns="http://www.w3.org/2000/svg" viewBox="0 0 38 38"><defs><style>.cls-1,.cls-2{fill:none;}.cls-1{stroke:#72695e;stroke-miterlimit:10;opacity:0.8;}</style></defs><title>asana_chair</title><g id="Слой_2" data-name="Слой 2"><g id="Layer_1" data-name="Layer 1"><path class="cls-1" d="M22,37H16l2.28-6.53c-4.21-2-7.28-2-7.28-5.28s3.33-3.68,7.4-10.29C20.67,11.2,21,4.2,21,2V0m1.38,13.44L23.8,9.38l-4.54-2.1a3,3,0,0,0-2.52,5.45L19.46,14A6.75,6.75,0,0,1,21,18.5c0,2-.87,3.65-3.25,6C22,26.75,23,27.56,23,29.17c0,1.43-.75,2.36-3.66,7.83"/><rect class="cls-2" width="38" height="38"/></g></g></svg>