<svg xmlns="http://www.w3.org/2000/svg" viewBox="0 0 38 38"><defs><style>.cls-1,.cls-2{fill:none;}.cls-1{stroke:#72695e;stroke-miterlimit:10;opacity:0.8;}</style></defs><title>asana_half_tortoise</title><g id="Слой_2" data-name="Слой 2"><g id="Layer_1" data-name="Layer 1"><path class="cls-1" d="M10.06,21H4a4.18,4.18,0,0,1-3-4c0-3.39,3.07-6,8.58-6,6.21,0,9.73,3.21,13.19,6,5,4,10,8,15.22,8M6,17h5a3.81,3.81,0,0,1,4,4,3.84,3.84,0,0,1-4,4H1.94L4,21m13-1v5h6a4,4,0,0,0,4-4v-.69"/><rect class="cls-2" width="38" height="38"/></g></g></svg>