<svg xmlns="http://www.w3.org/2000/svg" viewBox="0 0 38 38"><defs><style>.cls-1,.cls-2{fill:none;}.cls-1{stroke:#72695e;stroke-miterlimit:10;opacity:0.8;}</style></defs><title>buddha</title><g id="Слой_2" data-name="Слой 2"><g id="Layer_1" data-name="Layer 1"><path class="cls-1" d="M29,26.93C29,32,24.73,34.8,22.59,36a7.18,7.18,0,0,1-7.17,0C13.27,34.8,9,32,9,26.93V15a10,10,0,0,1,20,0ZM19,20v8m-8.41-6a8.26,8.26,0,0,0,2.9,1h2.57m5.88,0H24.5a8.26,8.26,0,0,0,2.9-1M15,30a8.5,8.5,0,0,0,8,0M9,18a3.12,3.12,0,0,0-2-1,2,2,0,0,0-2,2V29a2,2,0,0,0,4,0Zm24,1a2,2,0,0,0-2-2,3.12,3.12,0,0,0-2,1V29a2,2,0,0,0,4,0ZM22.5,5.63A2.76,2.76,0,0,0,23,4c0-1.66-1.21-3-4-3s-4,1.34-4,3a2.74,2.74,0,0,0,.53,1.68M29,17c0-2.37-1-5.23-3.34-6C24.12,10.5,22,13,19,13c-2.19,0-5-2.06-6-2.07M19,18V16m-3,2c-1,0-3-1-4-1H9m20,0H26c-1,0-3,1-4,1"/><rect class="cls-2" width="38" height="38"/></g></g></svg>