<svg xmlns="http://www.w3.org/2000/svg" viewBox="0 0 38 38"><defs><style>.cls-1,.cls-2{fill:none;}.cls-1{stroke:#72695e;stroke-miterlimit:10;opacity:0.8;}</style></defs><title>conch</title><g id="Слой_2" data-name="Слой 2"><g id="Layer_1" data-name="Layer 1"><path class="cls-1" d="M21.4,32.33C15.82,30.57,13,28.5,13,20c0-7.87.08-8.92-2.42-11.42L9,7c1.7,1.71,3.5,2,10.17,2C26.45,9,31,11.87,31,22V35.37ZM7.67,5.67,5,3c1.25,1.25,2.35,3.7,1.94,7.94C6.62,14.12,5,17,5,20.54,5,26.21,9.23,30,16.42,30M31,20.73l-10.2,11.4m5.13,1.62,5.1-5.7"/><rect class="cls-2" width="38" height="38"/></g></g></svg>