<svg xmlns="http://www.w3.org/2000/svg" viewBox="0 0 38 38"><defs><style>.cls-1,.cls-2{fill:none;}.cls-1{stroke:#72695e;stroke-miterlimit:10;opacity:0.8;}</style></defs><title>dharmachakra</title><g id="Слой_2" data-name="Слой 2"><g id="Layer_1" data-name="Layer 1"><path class="cls-1" d="M31,19A12,12,0,1,1,19,7,12,12,0,0,1,31,19ZM19,17a2,2,0,1,0,2,2A2,2,0,0,0,19,17Zm0,0V2m0,34V21m2-2H36M2,19H17m3.41-1.41L31,7M7,31,17.59,20.41m2.83,0L31,31M7,7,17.59,17.59"/><rect class="cls-2" width="38" height="38"/></g></g></svg>