<svg xmlns="http://www.w3.org/2000/svg" viewBox="0 0 137.86 38"><defs><style>.cls-1,.cls-2{fill:none;}.cls-1,.cls-3{stroke:#72695e;stroke-miterlimit:10;opacity:0.8;}.cls-3{fill-opacity:0.8;fill-rule:evenodd;}</style></defs><title>divider2</title><g id="Слой_2" data-name="Слой 2"><g id="Layer_1" data-name="Layer 1"><path class="cls-1" d="M74.25,16c7.62-4.4-.69-13.79-.69-13.79s-11.9,4-7.5,11.59M63.86,22c-7.62,4.4.69,13.79.69,13.79s11.9-4,7.5-11.59M69.05,13c0-8.8-12.29-6.29-12.29-6.29S54.25,19,63.06,19m6,6c0,8.8,12.29,6.29,12.29,6.29S83.85,19,75.05,19M63.86,16c-7.62-4.4-11.59,7.5-11.59,7.5s9.39,8.32,13.79.7M74.25,22c7.62,4.4,11.59-7.5,11.59-7.5s-9.39-8.32-13.79-.7m0,0c4.4-7.62-7.5-11.59-7.5-11.59S56.24,11.6,63.86,16m2.19,8.19c-4.4,7.62,7.5,11.59,7.5,11.59s8.32-9.39.7-13.79m-8.19-8.19c-4.4-7.62-13.79.7-13.79.7s4,11.9,11.59,7.5m8.19,2.19c4.4,7.62,13.79-.7,13.79-.7s-4-11.9-11.59-7.5M63.06,19c-8.8,0-6.29,12.29-6.29,12.29S69.05,33.8,69.05,25m6-6c8.8,0,6.29-12.29,6.29-12.29S69.05,4.2,69.05,13m-6,6a6,6,0,1,1,6,6A6,6,0,0,1,63.05,19Z"/><rect class="cls-2" x="50.05" width="38" height="38"/><path class="cls-3" d="M101.55,18.5h0s6.15-3,10-3c5.11,0,10,6,16,6a17.16,17.16,0,0,0,10-3h0a17.55,17.55,0,0,1-10,3c-6,0-10.83-6-16-6C107.66,15.5,101.55,18.5,101.55,18.5Z"/><path class="cls-3" d="M10.22,21.5c5.17,0,10-6,16-6a17.55,17.55,0,0,1,10,3h0a17.16,17.16,0,0,0-10-3c-6,0-10.89,6-16,6-3.85,0-10-3-10-3h0S6.33,21.5,10.22,21.5Z"/></g></g></svg>