<svg xmlns="http://www.w3.org/2000/svg" viewBox="0 0 38 38"><defs><style>.cls-1,.cls-2{fill:none;}.cls-1{stroke:#72695e;stroke-miterlimit:10;opacity:0.8;}</style></defs><title>lotus</title><g id="Слой_2" data-name="Слой 2"><g id="Layer_1" data-name="Layer 1"><path class="cls-1" d="M38,27c-9,0-8.45,4-19,4S9,27,0,27m25-7.25c0-5.32-2.63-9.3-6-13.75-3.37,4.45-6,8.43-6,13.75C13,23.56,15.07,27,19,27S25,23.56,25,19.75Zm-9-2.92C13.25,14,8,13,2.11,13c1.68,5.14,2.8,9.07,6.75,11.63C11.93,26.62,14.54,27,19,27,19,22.29,19,20,16,16.83ZM19,27c4.46,0,7.07-.38,10.15-2.37,3.95-2.56,5.06-6.48,6.75-11.62C30,13,24.75,14,22,16.83,19,20,19,22.29,19,27ZM15.56,11A18.06,18.06,0,0,0,9,7v6.58m20,0V7a18,18,0,0,0-6.56,4"/><rect class="cls-2" width="38" height="38"/></g></g></svg>