<svg xmlns="http://www.w3.org/2000/svg" viewBox="0 0 38 38"><defs><style>.cls-1,.cls-2{fill:none;}.cls-1{stroke:#72695e;stroke-miterlimit:10;opacity:0.8;}</style></defs><title>mudra_jnana</title><g id="Слой_2" data-name="Слой 2"><g id="Layer_1" data-name="Layer 1"><path class="cls-1" d="M3,24v1c0,3.38,2.08,6,7,6H31a2,2,0,0,0,0-4H20m12.76-4H35a2,2,0,0,0,0-4H22m7.25,8H33a2,2,0,0,0,0-4H22m3-7.75-3.31-2.7a2,2,0,0,1,2.53-3.1l3.49,2.83c1.18,1,1.25,1.47,1.25,2.06,0,1-.44,1.76-1.83,2.66a15.18,15.18,0,0,1-4.27,2M3,22V20.13C3,15.71,9.33,7.06,14.49,7L19,7a2,2,0,1,1,0,4l-4.33,0S13,12,13,13s1.67,2,6,2c3.17,0,4.1-1,4.3-1.17"/><rect class="cls-2" width="38" height="38"/></g></g></svg>