<svg xmlns="http://www.w3.org/2000/svg" viewBox="0 0 38 38"><defs><style>.cls-1,.cls-2{fill:none;}.cls-1{stroke:#72695e;stroke-miterlimit:10;opacity:0.8;}</style></defs><title>mudra_dhyana</title><g id="Слой_2" data-name="Слой 2"><g id="Layer_1" data-name="Layer 1"><path class="cls-1" d="M24.5,26.65c2-.29,2.5.89,2.5,1.73a2,2,0,0,1-1.36,1.83A23.25,23.25,0,0,1,19,31,16.71,16.71,0,0,1,7.63,26.33c-4-4-5.48-6.92-6.62-7.33V13H6a12.68,12.68,0,0,1,6,2h5a2,2,0,0,1,0,4H13a1.77,1.77,0,0,0-2,2c0,3.88,4.17,6,9,6a18.65,18.65,0,0,0,11-3c4.67-3.19,5-4.65,6-5V13H32a12.68,12.68,0,0,0-6,2H21a2,2,0,0,0,0,4h4c.88,0,2,.08,2,1.33C27,22,24,23,20,23a11.5,11.5,0,0,1-6.13-1.88,2.6,2.6,0,0,0-2.85.29"/><rect class="cls-2" width="38" height="38"/></g></g></svg>