<svg xmlns="http://www.w3.org/2000/svg" viewBox="0 0 38 38"><defs><style>.cls-1,.cls-2{fill:none;}.cls-1{stroke:#72695e;stroke-miterlimit:10;opacity:0.8;}</style></defs><title>mudra_surya</title><g id="Слой_2" data-name="Слой 2"><g id="Layer_1" data-name="Layer 1"><path class="cls-1" d="M21,16V5a2,2,0,0,1,4,0V19M18,35h3c4.42,0,8-4.83,8-10a11.8,11.8,0,0,0-1.54-4,3,3,0,0,0-3-2h-6a2,2,0,0,0,0,4h5c-2.81,0-6.5,2-6.5,7M13,18V7A2,2,0,0,0,9,7V28c0,4.92,2.63,7,6,7h1m5-19V3a2,2,0,0,0-4,0V16m0-3a2,2,0,0,0-4,0v6a2,2,0,0,0,4,0Z"/><rect class="cls-2" width="38" height="38"/></g></g></svg>