<svg xmlns="http://www.w3.org/2000/svg" viewBox="0 0 38 38"><defs><style>.cls-1,.cls-2{fill:none;}.cls-1{stroke:#72695e;stroke-miterlimit:10;opacity:0.8;}</style></defs><title>muladahara</title><g id="Слой_2" data-name="Слой 2"><g id="Layer_1" data-name="Layer 1"><path class="cls-1" d="M30.31,19A11.31,11.31,0,1,1,19,7.69,11.31,11.31,0,0,1,30.31,19ZM19,27l7-12H12l7,12m-8,1.36c0,6.08,5,5.21,8,8.21,3-3,8-2.12,8-8.21V9.64c0-6.08-5-5.21-8-8.21-3,3-8,2.12-8,8.21ZM9.64,11c-6.08,0-5.2,5-8.2,8,3,3,2.12,8,8.2,8H28.36c6.08,0,5.2-5,8.2-8-3-3-2.12-8-8.2-8Z"/><rect class="cls-2" width="38" height="38"/></g></g></svg>