<svg xmlns="http://www.w3.org/2000/svg" viewBox="0 0 38 38"><defs><style>.cls-1,.cls-2{fill:none;}.cls-1{stroke:#72695e;stroke-miterlimit:10;opacity:0.8;}</style></defs><title>om</title><g id="Слой_2" data-name="Слой 2"><g id="Layer_1" data-name="Layer 1"><path class="cls-1" d="M8.89,15.44S11.48,13.22,14,13c1.47-.13,3,.5,3,2.44A3.86,3.86,0,0,1,14,19c1.75,0,9,1.19,9,8a5.83,5.83,0,0,1-6.35,6c-5.4-.16-6.47-4.6-10.08-5.79a3.79,3.79,0,0,0-3.08.41m22.74-1.44A5,5,0,0,0,29.56,28c2.55,0,3.71-1.83,3.4-5.37S29.06,15,25.37,15c-4.26,0-3.69,4.59-7.64,4.78M14,7s4.38,4,9.31,4a4.72,4.72,0,0,0,4.38-3M22.5,6a.5.5,0,1,0,.5.5A.5.5,0,0,0,22.5,6Z"/><rect class="cls-2" width="38" height="38"/></g></g></svg>