<svg xmlns="http://www.w3.org/2000/svg" viewBox="0 0 38 38"><defs><style>.cls-1,.cls-2{fill:none;}.cls-1{stroke:#72695e;stroke-miterlimit:10;opacity:0.8;}</style></defs><title>woman_well</title><g id="Слой_2" data-name="Слой 2"><g id="Layer_1" data-name="Layer 1"><path class="cls-1" d="M10.2,8.24A10,10,0,0,1,29,13V24.93c0,5.24-5.23,8-7.15,9.14A5.47,5.47,0,0,1,19,35a5.48,5.48,0,0,1-2.85-.93C14.22,32.91,9,30.17,9,24.93V13a10,10,0,0,1,.3-2.43M19,18v8m-7.53-6a6.93,6.93,0,0,0,2.6,1h2m5.87,0h2a6.92,6.92,0,0,0,2.6-1m-11,7.88A6.91,6.91,0,0,0,19,29a6.93,6.93,0,0,0,3.47-1.12M9,18a3.12,3.12,0,0,0-2-1,2,2,0,0,0-2,2v2a4,4,0,0,0,4,4m20,0a4,4,0,0,0,4-4V19a2,2,0,0,0-2-2,3.12,3.12,0,0,0-2,1M16,16c-1,0-2-1-4-1a10.07,10.07,0,0,0-3,1m20,0a10.07,10.07,0,0,0-3-1c-2,0-3,1-4,1M15,33.39V38m8-4.61V38m6-22S17.88,9,16.25,9a3,3,0,0,0-2.45,1.31M23,33.39S24.67,37,31.29,37H34M29,25c0,3.87,1.13,8,5,8"/><rect class="cls-2" width="38" height="38"/></g></g></svg>