<svg xmlns="http://www.w3.org/2000/svg" viewBox="0 0 38 38"><defs><style>.cls-1,.cls-2{fill:none;}.cls-1{stroke:#72695e;stroke-miterlimit:10;opacity:0.8;}</style></defs><title>asana_warrior2</title><g id="Слой_2" data-name="Слой 2"><g id="Layer_1" data-name="Layer 1"><path class="cls-1" d="M21,0V14c3,1,3,2.83,3,4a55,55,0,0,1-1,5.88,60.62,60.62,0,0,1,6.31,1,2,2,0,0,1,1.75,2.05c0,1.56-1,10.06-1,10.06M18,9H14a3,3,0,0,0,0,6h3s0,4.6,0,7c0,0-1.08,1.17-2,2A124.16,124.16,0,0,0,2,37H4.06s12.25-7.62,15.29-8A47.41,47.41,0,0,1,27,29v8h5"/><rect class="cls-2" width="38" height="38"/></g></g></svg>