<svg xmlns="http://www.w3.org/2000/svg" viewBox="0 0 38 38"><defs><style>.cls-1,.cls-2{fill:none;}.cls-1{stroke:#72695e;stroke-miterlimit:10;opacity:0.8;}</style></defs><title>asana_bow</title><g id="Слой_2" data-name="Слой 2"><g id="Layer_1" data-name="Layer 1"><path class="cls-1" d="M26.65,15.12l-7.92,7.65-9.82-3.7,2.85-9.55m20.36,4.86,3.11-3.07S32,7.36,31.41,6.72c-1.81-1.92-4.24-2.57-6.72-.22s-2,4.8-.15,6.72c.6.63,2.12,1.89,2.12,1.89m-18.58-7C4.25,16.27,3,18,3,20a4.89,4.89,0,0,0,1.45,3.28C8.85,27.63,13.36,31,19,31c6.33,0,12-7.33,12-10.62,0-3-1.26-4.1-4.35-5.26l-21.22-8"/><rect class="cls-2" width="38" height="38"/></g></g></svg>