<svg xmlns="http://www.w3.org/2000/svg" viewBox="0 0 38 38"><defs><style>.cls-1,.cls-2{fill:none;}.cls-1{stroke:#72695e;stroke-miterlimit:10;opacity:0.8;}</style></defs><title>asana_head_to_knee</title><g id="Слой_2" data-name="Слой 2"><g id="Layer_1" data-name="Layer 1"><path class="cls-1" d="M1.11,21h9A2.79,2.79,0,0,1,13,24a2.84,2.84,0,0,1-2.94,3H6c-2,0-5-1-5-5,0-5.31,5.44-9,12.44-9a9.55,9.55,0,0,1,8.14,3.76l3.82,5.13C27,24.07,28.75,25,31,25h6V18M12.85,25h8.86l-3-4H14m23,0H30.46A4,4,0,0,0,27,15H19.87"/><rect class="cls-2" width="38" height="38"/></g></g></svg>