<svg xmlns="http://www.w3.org/2000/svg" viewBox="0 0 38 38"><defs><style>.cls-1,.cls-2{fill:none;}.cls-1{stroke:#72695e;stroke-miterlimit:10;opacity:0.8;}</style></defs><title>asana_lotus</title><g id="Слой_2" data-name="Слой 2"><g id="Layer_1" data-name="Layer 1"><path class="cls-1" d="M23,8a4,4,0,0,1-8,0V5a4,4,0,0,1,8,0Zm5.5,25.19-7.11-3.4L9.44,33.19M15,20l-1,6.62s-3.89,1.75-5.48,2.58S5,31.1,5,33.69a3.28,3.28,0,0,0,3.48,3.4c2,0,6.52-1.29,10.52-2.37s7.81-2.33,7.81-2.33M19,34.71C23,35.79,27.52,37,29.52,37A3.28,3.28,0,0,0,33,33.61c0-2.59-1.92-3.67-3.52-4.5S24,26.5,24,26.5L23,20M.5,31.32S4.94,28.17,6.94,25,10.86,17.4,12,16s5-2.55,5-2.55v-2m4,0v2S24.86,14.6,26,16s3.06,5.73,5.06,9,6.43,6.37,6.43,6.37"/><rect class="cls-2" width="38" height="38"/></g></g></svg>