<svg xmlns="http://www.w3.org/2000/svg" viewBox="0 0 38 38"><defs><style>.cls-1,.cls-2{fill:none;}.cls-1{stroke:#72695e;stroke-miterlimit:10;opacity:0.8;}</style></defs><title>asana_equestrian</title><g id="Слой_2" data-name="Слой 2"><g id="Layer_1" data-name="Layer 1"><path class="cls-1" d="M1,36a46.47,46.47,0,0,0,8.31,1C15.06,37,29,30.56,29,30.56V37h5M25,14.76c-4.22,8-9,15.69-12.77,17.5S1,33.19,1,33.19V38M22.66,27.19s6.12-2.31,8.65-2.31a1.83,1.83,0,0,1,1.75,2.05c0,1.56-1,10.06-1,10.06M28.22,13.32,30.44,9s-4.71-3-5.37-3.35c-2-1.06-4.08-.94-5.45,1.61s-.3,4.38,1.66,5.44c.65.35,1.53.9,3.75,2.08,3.45,1.85,4,3,4,6.24V38"/><rect class="cls-2" width="38" height="38"/></g></g></svg>