<?xml version="1.0" encoding="utf-8"?>
<!-- Generator: Adobe Illustrator 21.0.2, SVG Export Plug-In . SVG Version: 6.00 Build 0)  -->
<svg version="1.1" id="Слой_1" xmlns="http://www.w3.org/2000/svg" xmlns:xlink="http://www.w3.org/1999/xlink" x="0px" y="0px"
	 viewBox="0 0 96 96" style="enable-background:new 0 0 96 96;" xml:space="preserve">
<style type="text/css">
	.st0{fill-rule:evenodd;clip-rule:evenodd;}
</style>
<g>
	<g>
		<path class="st0" d="M48,0.5C21.8,0.5,0.5,21.8,0.5,48c0,26.2,21.3,47.5,47.5,47.5c26.2,0,47.5-21.3,47.5-47.5
			C95.5,21.8,74.2,0.5,48,0.5z M48,93.5C22.9,93.5,2.5,73.1,2.5,48C2.5,22.9,22.9,2.5,48,2.5c25.1,0,45.5,20.4,45.5,45.5
			C93.5,73.1,73.1,93.5,48,93.5z M74.3,31.9L47.6,47.3c-0.1-0.1-0.3-0.3-0.5-0.4L28.5,33.1c-0.9-0.6-1.9-0.7-2.3-0.2
			c-0.4,0.5,0,1.5,0.9,2.1l18.7,13.8c0.1,0.1,0.2,0.1,0.3,0.2c-0.1,0.2,0,0.4,0.2,0.4c0.3,0,2.3,0.1,2.3,0L75.5,34
			c1-0.6,1.5-1.5,1.1-2C76.3,31.4,75.3,31.4,74.3,31.9z"/>
	</g>
</g>
</svg>
