<svg xmlns="http://www.w3.org/2000/svg" viewBox="0 0 38 38"><defs><style>.cls-1,.cls-2{fill:none;}.cls-1{stroke:#72695e;stroke-miterlimit:10;opacity:0.8;}</style></defs><title>kundalini</title><g id="Слой_2" data-name="Слой 2"><g id="Layer_1" data-name="Layer 1"><path class="cls-1" d="M19,35,36,9H2Zm0-15.52A1.79,1.79,0,0,1,20.63,17c1.5,0,2.38,1,2.38,2.62,0,2-1.5,3.38-4,3.38-2,0-4-1.46-4-4.46A5.37,5.37,0,0,1,20.71,13C24.47,13,27,15.54,27,19.63,27,24,23.42,27,19,27c-5.75,0-8-4.29-8-8.79A9.34,9.34,0,0,1,20.69,9"/><rect class="cls-2" width="38" height="38"/></g></g></svg>