<svg xmlns="http://www.w3.org/2000/svg" viewBox="0 0 38 38"><defs><style>.cls-1,.cls-2{fill:none;}.cls-1{stroke:#72695e;stroke-miterlimit:10;opacity:0.8;}</style></defs><title>man_well</title><g id="Слой_2" data-name="Слой 2"><g id="Layer_1" data-name="Layer 1"><path class="cls-1" d="M18,5c5.06,0,5.19,4,11,4V24.93C29,29,27,30,22.59,33.67a5.51,5.51,0,0,1-7.17,0C11,30,9,29,9,24.93V7.13S13.4,3.92,15,3s3.11-2,5.35-2c4,0,5.07,4,8.63,4h1M19,16v8m-7.53-6a6.93,6.93,0,0,0,2.6,1h2m5.87,0h2a6.92,6.92,0,0,0,2.6-1m-12.2,7.88a10.26,10.26,0,0,0,9.34,0M9,16a3.12,3.12,0,0,0-2-1,2,2,0,0,0-2,2v4a4,4,0,0,0,4,4m20,0a4,4,0,0,0,4-4V17a2,2,0,0,0-2-2,3.12,3.12,0,0,0-2,1M18,15c-1,0-4-1-6-1a10.07,10.07,0,0,0-3,1m20,0a10.07,10.07,0,0,0-3-1c-2,0-5,1-6,1M13,32v6m12-6v6"/><rect class="cls-2" width="38" height="38"/></g></g></svg>