<svg xmlns="http://www.w3.org/2000/svg" viewBox="0 0 38 38"><defs><style>.cls-1,.cls-2{fill:none;}.cls-1{stroke:#72695e;stroke-miterlimit:10;opacity:0.8;}</style></defs><title>mudra_anjali</title><g id="Слой_2" data-name="Слой 2"><g id="Layer_1" data-name="Layer 1"><path class="cls-1" d="M36,33H27c-3.37,0-8-2.08-8-7V7a2,2,0,0,1,2-2,4.57,4.57,0,0,1,2,.5V17M19,7V3a2,2,0,0,1,2-2,4.57,4.57,0,0,1,2,.5V10s2.2,7.46,3.69,11.87A1.4,1.4,0,0,0,28,23h8M2,33h9c3.38,0,8-2.08,8-7V7a2,2,0,0,0-2-2,4.57,4.57,0,0,0-2,.5V17M2,23h8a1.4,1.4,0,0,0,1.31-1.13C12.8,17.46,15,10,15,10V1.5A4.57,4.57,0,0,1,17,1a2,2,0,0,1,2,2V7"/><rect class="cls-2" width="38" height="38"/></g></g></svg>