<svg xmlns="http://www.w3.org/2000/svg" viewBox="0 0 38 38"><defs><style>.cls-1,.cls-2{fill:none;}.cls-1{stroke:#72695e;stroke-miterlimit:10;opacity:0.8;}</style></defs><title>sahasara</title><g id="Слой_2" data-name="Слой 2"><g id="Layer_1" data-name="Layer 1"><path class="cls-1" d="M24.19,16c7.62-4.4-.69-13.79-.69-13.79s-11.9,4-7.5,11.59M13.81,22c-7.62,4.4.69,13.79.69,13.79s11.9-4,7.5-11.59M19,13C19,4.2,6.71,6.71,6.71,6.71S4.2,19,13,19m6,6c0,8.8,12.29,6.29,12.29,6.29S33.8,19,25,19M13.81,16C6.19,11.6,2.22,23.5,2.22,23.5s9.39,8.32,13.79.7M24.19,22c7.62,4.4,11.59-7.5,11.59-7.5S26.4,6.18,22,13.81m0,0c4.4-7.62-7.5-11.59-7.5-11.59S6.18,11.6,13.81,16M16,24.19c-4.4,7.62,7.5,11.59,7.5,11.59s8.32-9.39.7-13.79M16,13.81c-4.4-7.62-13.79.7-13.79.7s4,11.9,11.59,7.5M22,24.19c4.4,7.62,13.79-.7,13.79-.7s-4-11.9-11.59-7.5M13,19C4.2,19,6.71,31.29,6.71,31.29S19,33.8,19,25m6-6c8.8,0,6.29-12.29,6.29-12.29S19,4.2,19,13m-6,6a6,6,0,1,1,6,6A6,6,0,0,1,13,19Z"/><rect class="cls-2" width="38" height="38"/></g></g></svg>