<svg xmlns="http://www.w3.org/2000/svg" viewBox="0 0 38 38"><defs><style>.cls-1,.cls-2{fill:none;}.cls-1{stroke:#72695e;stroke-miterlimit:10;opacity:0.8;}</style></defs><title>svadhisthana</title><g id="Слой_2" data-name="Слой 2"><g id="Layer_1" data-name="Layer 1"><path class="cls-1" d="M9,19A10,10,0,1,0,19,9,10,10,0,0,0,9,19Zm3-3a7,7,0,1,0,7-7A7,7,0,0,0,12,16Zm12-5.66c2.4-4.16-3.92-6.73-5-7.81-1.08,1.08-7.4,3.65-5,7.81m0,17.32c-2.4,4.16,3.92,6.73,5,7.81,1.08-1.08,7.4-3.65,5-7.81M29,19c4.8,0,3.87-6.76,4.26-8.24-1.47-.4-6.86-4.58-9.26-.42M9,19c-4.8,0-3.87,6.76-4.26,8.24,1.47.39,6.86,4.58,9.26.42m10,0c2.4,4.16,7.79,0,9.26-.42C32.87,25.76,33.8,19,29,19M14,10.34c-2.4-4.16-7.79,0-9.26.42C5.13,12.24,4.2,19,9,19"/><rect class="cls-2" width="38" height="38"/></g></g></svg>