<?xml version="1.0" encoding="utf-8"?>
<!-- Generator: Adobe Illustrator 21.0.2, SVG Export Plug-In . SVG Version: 6.00 Build 0)  -->
<svg version="1.1" id="Слой_1" xmlns="http://www.w3.org/2000/svg" xmlns:xlink="http://www.w3.org/1999/xlink" x="0px" y="0px"
	 viewBox="0 0 111 89" style="enable-background:new 0 0 111 89;" xml:space="preserve">
<style type="text/css">
	.st0{fill-rule:evenodd;clip-rule:evenodd;}
</style>
<g>
	<g>
		<path class="st0" d="M102.5,0.5h-84c-4.4,0-8,3.6-8,8h2c0-3.3,2.7-6,6-6h84c3.3,0,6,2.7,6,6v66c0,3.3-2.7,6-6,6v2c4.4,0,8-3.6,8-8
			v-66C110.5,4.1,106.9,0.5,102.5,0.5z M67.5,46.5l-29-22c-1.7,0-3,1.3-3,3v44c0,1.7,1.3,3,3,3l29-22C70.6,50,69.6,48,67.5,46.5z
			 M37.5,72.5v-46l30,23L37.5,72.5z M92.5,10.5h-84c-4.4,0-8,3.6-8,8v62c0,4.4,3.6,8,8,8h84c4.4,0,8-3.6,8-8v-62
			C100.5,14.1,96.9,10.5,92.5,10.5z M2.5,18.5c0-3.3,2.7-6,6-6h8v13h-14V18.5z M2.5,27.5h14v13h-14V27.5z M2.5,42.5h14v13h-14V42.5z
			 M2.5,57.5h14v13h-14V57.5z M98.5,80.5c0,3.3-2.7,6-6,6h-84c-3.3,0-6-2.7-6-6v-8h14v14h2v-74h64v74h2v-14h14V80.5z M98.5,70.5h-14
			v-13h14V70.5z M98.5,55.5h-14v-13h14V55.5z M98.5,40.5h-14v-13h14V40.5z M98.5,25.5h-14v-13h8c3.3,0,6,2.7,6,6V25.5z"/>
	</g>
</g>
</svg>
