<svg xmlns="http://www.w3.org/2000/svg" viewBox="0 0 38 38"><defs><style>.cls-1,.cls-2{fill:none;}.cls-1{stroke:#72695e;stroke-miterlimit:10;opacity:0.8;}</style></defs><title>vishudda</title><g id="Слой_2" data-name="Слой 2"><g id="Layer_1" data-name="Layer 1"><path class="cls-1" d="M7,19A12,12,0,1,0,19,7,12,12,0,0,0,7,19Zm12-6a6,6,0,1,1-6,6A6,6,0,0,1,19,13ZM12.34,9C10.56,6.36,8.76,7.61,7.69,7.69,7.61,8.76,6.36,10.56,9,12.33M25.67,29c1.77,2.66,3.57,1.41,4.65,1.33.08-1.08,1.32-2.87-1.33-4.65m-20,0c-2.66,1.78-1.41,3.57-1.33,4.65,1.07.08,2.87,1.33,4.64-1.33M29,12.33c2.66-1.78,1.41-3.57,1.33-4.65C29.24,7.61,27.44,6.36,25.67,9M7.23,16.66C4.09,16,3.71,18.19,3,19c.71.81,1.09,3,4.23,2.34m23.55,0C33.91,22,34.29,19.81,35,19c-.71-.81-1.09-3-4.23-2.34M16.66,30.77C16,33.91,18.19,34.29,19,35c.81-.71,3-1.09,2.34-4.22m0-23.55C22,4.09,19.82,3.71,19,3c-.81.71-3,1.09-2.34,4.23m0,0c-.63-3.14-2.76-2.67-3.79-3-.48,1-2.32,2.14-.55,4.8m9,21.75c.62,3.13,2.76,2.67,3.78,3,.48-1,2.32-2.15.55-4.81M7.23,21.34c-3.14.63-2.67,2.76-3,3.78,1,.48,2.14,2.32,4.8.55m21.76-9c3.13-.62,2.67-2.76,3-3.78-1-.48-2.15-2.32-4.81-.54m-20,0c-2.66-1.78-3.84.06-4.81.55.34,1-.13,3.16,3,3.78m21.75,9c2.66,1.77,3.84-.07,4.8-.55-.34-1,.12-3.16-3-3.79M12.33,29c-1.78,2.66.06,3.84.54,4.81,1-.34,3.16.13,3.78-3M25.67,9c1.77-2.66-.07-3.84-.55-4.8-1,.34-3.16-.12-3.79,3M19,31,29.39,13m0,0H8.61m0,0L19,31"/><rect class="cls-2" width="38" height="38"/></g></g></svg>